<?xml version="1.0" standalone="no"?>
<!DOCTYPE svg PUBLIC "-//W3C//DTD SVG 20010904//EN"
 "http://www.w3.org/TR/2001/REC-SVG-20010904/DTD/svg10.dtd">
<svg version="1.0" xmlns="http://www.w3.org/2000/svg"
 width="280.000000pt" height="280.000000pt" viewBox="0 0 280.000000 280.000000"
 preserveAspectRatio="xMidYMid meet">
<metadata>
Created by potrace 1.10, written by Peter Selinger 2001-2011
</metadata>
<g transform="translate(0.000000,280.000000) scale(0.100000,-0.100000)" fill="#FFFF" stroke="none">
<path d="M1578 2487 c-61 -95 -88 -176 -88 -269 0 -226 146 -429 383 -532 70
-30 77 -31 212 -31 160 1 207 14 303 87 48 35 151 160 152 181 0 5 -20 -12
-45 -38 -70 -71 -139 -98 -260 -103 -192 -7 -337 49 -471 182 -166 166 -225
380 -149 544 13 29 21 52 17 52 -4 0 -28 -33 -54 -73z m-13 -247 c30 -117 82
-207 170 -295 130 -131 279 -193 472 -198 108 -2 122 -17 41 -42 -74 -23 -209
-28 -287 -9 -198 46 -375 217 -425 410 -18 71 -21 141 -6 180 6 15 12 25 14
23 2 -2 12 -33 21 -69z"/>
<path d="M1054 2342 c-133 -199 -158 -271 -158 -457 0 -94 5 -137 22 -198 48
-168 132 -306 258 -427 120 -114 252 -193 399 -240 87 -27 302 -38 415 -21 95
15 224 59 298 102 83 49 218 190 269 279 65 116 62 118 -28 28 -93 -93 -156
-134 -269 -172 -218 -73 -461 -48 -692 71 -425 218 -640 713 -466 1072 19 39
32 71 29 71 -4 -1 -38 -49 -77 -108z m-9 -465 c94 -325 377 -593 721 -684 81
-21 122 -26 229 -26 152 -1 240 16 351 67 41 19 74 31 74 27 0 -14 -83 -86
-141 -123 -86 -54 -157 -81 -284 -103 -342 -62 -688 80 -903 370 -132 179
-184 374 -158 589 8 64 39 160 58 184 11 12 14 -5 20 -99 4 -75 16 -144 33
-202z"/>
<path d="M430 2128 c-113 -149 -136 -186 -169 -268 -56 -139 -65 -191 -65
-360 1 -170 18 -258 83 -426 112 -290 377 -570 674 -714 189 -91 326 -120 562
-120 450 0 787 195 1005 583 18 32 31 60 28 62 -2 2 -20 -16 -39 -40 -194
-238 -572 -357 -959 -301 -493 73 -932 437 -1084 901 -81 245 -73 525 21 722
14 30 23 56 22 57 -2 2 -38 -41 -79 -96z m-48 -290 c-5 -177 6 -259 55 -408
120 -367 432 -690 813 -840 154 -61 248 -80 440 -87 240 -8 407 25 591 118 44
21 79 36 79 33 0 -11 -71 -86 -125 -132 -184 -159 -398 -238 -674 -250 -321
-13 -593 77 -851 284 -54 43 -186 175 -234 235 -27 33 -124 196 -145 244 -139
309 -141 635 -4 885 28 52 47 77 59 80 0 0 -2 -73 -4 -162z"/>
</g>
</svg>
